<svg width="573" height="175" viewBox="0 0 573 175" fill="none" xmlns="http://www.w3.org/2000/svg">
<path d="M19.5 132C18.2 132 17.1 131.6 16.2 130.8C15.4 129.9 15 128.8 15 127.5V19.35C15 17.95 15.4 16.85 16.2 16.05C17.1 15.25 18.2 14.85 19.5 14.85H48.15C55.45 14.85 61.9 16.4 67.5 19.5C73.2 22.5 77.65 26.65 80.85 31.95C84.05 37.25 85.65 43.4 85.65 50.4C85.65 57.2 84.05 63.25 80.85 68.55C77.65 73.85 73.2 78 67.5 81C61.9 84 55.45 85.5 48.15 85.5H24V127.5C24 128.8 23.6 129.9 22.8 130.8C22 131.6 20.9 132 19.5 132ZM82.5 132C81.4 132 80.55 131.8 79.95 131.4C79.45 130.9 78.95 130.3 78.45 129.6L48.6 81.9L57.9 79.8L86.25 125.1C87.55 127.1 87.8 128.75 87 130.05C86.3 131.35 84.8 132 82.5 132ZM24 76.5H48.15C53.75 76.5 58.65 75.4 62.85 73.2C67.15 70.9 70.5 67.8 72.9 63.9C75.4 60 76.65 55.5 76.65 50.4C76.65 45.2 75.4 40.6 72.9 36.6C70.5 32.6 67.15 29.5 62.85 27.3C58.65 25 53.75 23.85 48.15 23.85H24V76.5ZM172.26 132.9C164.26 132.9 157.06 131.1 150.66 127.5C144.36 123.8 139.36 118.8 135.66 112.5C132.06 106.1 130.26 98.95 130.26 91.05C130.26 83.05 132.06 75.9 135.66 69.6C139.36 63.2 144.36 58.2 150.66 54.6C157.06 50.9 164.26 49.05 172.26 49.05C180.26 49.05 187.41 50.9 193.71 54.6C200.01 58.2 204.96 63.2 208.56 69.6C212.26 75.9 214.11 83.05 214.11 91.05C214.11 98.95 212.26 106.1 208.56 112.5C204.96 118.8 200.01 123.8 193.71 127.5C187.41 131.1 180.26 132.9 172.26 132.9ZM172.26 124.5C178.56 124.5 184.16 123.05 189.06 120.15C194.06 117.15 197.96 113.15 200.76 108.15C203.66 103.05 205.11 97.3 205.11 90.9C205.11 84.6 203.66 78.95 200.76 73.95C197.96 68.85 194.06 64.85 189.06 61.95C184.16 58.95 178.56 57.45 172.26 57.45C166.06 57.45 160.46 58.95 155.46 61.95C150.46 64.85 146.51 68.85 143.61 73.95C140.71 78.95 139.26 84.65 139.26 91.05C139.26 97.35 140.71 103.05 143.61 108.15C146.51 113.15 150.46 117.15 155.46 120.15C160.46 123.05 166.06 124.5 172.26 124.5ZM304.066 132.9C296.066 132.9 288.866 131.1 282.466 127.5C276.166 123.8 271.166 118.8 267.466 112.5C263.866 106.1 262.066 98.95 262.066 91.05C262.066 83.05 263.866 75.9 267.466 69.6C271.166 63.2 276.166 58.2 282.466 54.6C288.866 50.9 296.066 49.05 304.066 49.05C312.066 49.05 319.216 50.9 325.516 54.6C331.816 58.2 336.766 63.2 340.366 69.6C344.066 75.9 345.916 83.05 345.916 91.05C345.916 98.95 344.066 106.1 340.366 112.5C336.766 118.8 331.816 123.8 325.516 127.5C319.216 131.1 312.066 132.9 304.066 132.9ZM304.066 124.5C310.366 124.5 315.966 123.05 320.866 120.15C325.866 117.15 329.766 113.15 332.566 108.15C335.466 103.05 336.916 97.3 336.916 90.9C336.916 84.6 335.466 78.95 332.566 73.95C329.766 68.85 325.866 64.85 320.866 61.95C315.966 58.95 310.366 57.45 304.066 57.45C297.866 57.45 292.266 58.95 287.266 61.95C282.266 64.85 278.316 68.85 275.416 73.95C272.516 78.95 271.066 84.65 271.066 91.05C271.066 97.35 272.516 103.05 275.416 108.15C278.316 113.15 282.266 117.15 287.266 120.15C292.266 123.05 297.866 124.5 304.066 124.5ZM431.973 132C426.473 131.9 421.573 130.65 417.273 128.25C412.973 125.75 409.623 122.35 407.223 118.05C404.823 113.65 403.623 108.7 403.623 103.2V28.5C403.623 27.1 404.023 26 404.823 25.2C405.723 24.3 406.823 23.85 408.123 23.85C409.523 23.85 410.623 24.3 411.423 25.2C412.323 26 412.773 27.1 412.773 28.5V103.2C412.773 109 414.573 113.75 418.173 117.45C421.773 121.05 426.423 122.85 432.123 122.85H435.423C436.823 122.85 437.923 123.3 438.723 124.2C439.623 125 440.073 126.1 440.073 127.5C440.073 128.8 439.623 129.9 438.723 130.8C437.923 131.6 436.823 132 435.423 132H431.973ZM391.923 61.05C390.723 61.05 389.723 60.7 388.923 60C388.223 59.2 387.873 58.2 387.873 57C387.873 55.8 388.223 54.85 388.923 54.15C389.723 53.35 390.723 52.95 391.923 52.95H432.573C433.773 52.95 434.723 53.35 435.423 54.15C436.223 54.85 436.623 55.8 436.623 57C436.623 58.2 436.223 59.2 435.423 60C434.723 60.7 433.773 61.05 432.573 61.05H391.923ZM525.471 133.5C519.171 133.5 513.371 132.65 508.071 130.95C502.871 129.15 498.371 126.65 494.571 123.45C490.771 120.15 487.771 116.3 485.571 111.9C484.971 110.7 484.921 109.55 485.421 108.45C486.021 107.35 486.971 106.6 488.271 106.2C489.371 105.8 490.471 105.85 491.571 106.35C492.671 106.85 493.521 107.65 494.121 108.75C495.921 111.95 498.271 114.75 501.171 117.15C504.171 119.55 507.671 121.4 511.671 122.7C515.771 123.9 520.371 124.5 525.471 124.5C531.171 124.5 536.071 123.55 540.171 121.65C544.371 119.75 547.571 116.95 549.771 113.25C552.071 109.55 553.221 105.05 553.221 99.75C553.221 93.15 550.821 87.6 546.021 83.1C541.321 78.5 534.121 75.55 524.421 74.25C513.221 72.65 504.471 69.05 498.171 63.45C491.871 57.75 488.721 50.85 488.721 42.75C488.721 36.85 490.171 31.7 493.071 27.3C496.071 22.9 500.221 19.5 505.521 17.1C510.921 14.6 517.121 13.35 524.121 13.35C529.321 13.35 534.121 14.2 538.521 15.9C542.921 17.6 546.771 19.85 550.071 22.65C553.371 25.35 555.921 28.2 557.721 31.2C558.421 32.3 558.571 33.5 558.171 34.8C557.871 36 557.071 36.85 555.771 37.35C554.671 37.75 553.571 37.8 552.471 37.5C551.371 37.1 550.471 36.4 549.771 35.4C548.371 33.3 546.571 31.25 544.371 29.25C542.171 27.25 539.421 25.6 536.121 24.3C532.821 23 528.821 22.35 524.121 22.35C515.921 22.35 509.471 24.2 504.771 27.9C500.071 31.6 497.721 36.85 497.721 43.65C497.721 47.25 498.671 50.55 500.571 53.55C502.571 56.45 505.671 58.95 509.871 61.05C514.071 63.15 519.421 64.75 525.921 65.85C538.821 68.05 548.071 72.05 553.671 77.85C559.371 83.55 562.221 90.85 562.221 99.75C562.221 104.95 561.321 109.65 559.521 113.85C557.821 118.05 555.321 121.6 552.021 124.5C548.821 127.4 544.971 129.65 540.471 131.25C535.971 132.75 530.971 133.5 525.471 133.5Z" fill="#FFFBF8"/>
<path d="M18.027 174.585C17.947 174.585 17.847 174.56 17.727 174.51C17.357 174.34 17.257 174.075 17.427 173.715L22.182 163.14C22.352 162.79 22.617 162.695 22.977 162.855C23.347 163.005 23.452 163.265 23.292 163.635L18.507 174.195C18.407 174.455 18.247 174.585 18.027 174.585ZM19.722 170.715C19.562 170.795 19.412 170.81 19.272 170.76C19.132 170.71 19.017 170.6 18.927 170.43L15.567 163.635C15.487 163.465 15.472 163.31 15.522 163.17C15.582 163.03 15.692 162.92 15.852 162.84C16.022 162.77 16.177 162.76 16.317 162.81C16.457 162.86 16.567 162.965 16.647 163.125L19.932 169.935C20.012 170.095 20.037 170.25 20.007 170.4C19.987 170.54 19.892 170.645 19.722 170.715ZM34.2178 171.075C33.4078 171.075 32.6878 170.895 32.0578 170.535C31.4378 170.175 30.9478 169.68 30.5878 169.05C30.2278 168.42 30.0478 167.705 30.0478 166.905C30.0478 166.095 30.2278 165.375 30.5878 164.745C30.9478 164.115 31.4378 163.62 32.0578 163.26C32.6878 162.9 33.4078 162.72 34.2178 162.72C35.0178 162.72 35.7278 162.9 36.3478 163.26C36.9678 163.62 37.4578 164.115 37.8178 164.745C38.1778 165.375 38.3628 166.095 38.3728 166.905C38.3728 167.705 38.1928 168.42 37.8328 169.05C37.4728 169.68 36.9778 170.175 36.3478 170.535C35.7278 170.895 35.0178 171.075 34.2178 171.075ZM34.2178 169.935C34.7778 169.935 35.2778 169.805 35.7178 169.545C36.1578 169.275 36.5028 168.915 36.7528 168.465C37.0028 168.005 37.1278 167.485 37.1278 166.905C37.1278 166.325 37.0028 165.805 36.7528 165.345C36.5028 164.885 36.1578 164.525 35.7178 164.265C35.2778 163.995 34.7778 163.86 34.2178 163.86C33.6578 163.86 33.1528 163.995 32.7028 164.265C32.2628 164.525 31.9128 164.885 31.6528 165.345C31.4028 165.805 31.2778 166.325 31.2778 166.905C31.2778 167.485 31.4028 168.005 31.6528 168.465C31.9128 168.915 32.2628 169.275 32.7028 169.545C33.1528 169.805 33.6578 169.935 34.2178 169.935ZM50.1595 171.09C49.4495 171.09 48.8145 170.945 48.2545 170.655C47.7045 170.355 47.2695 169.92 46.9495 169.35C46.6295 168.78 46.4695 168.08 46.4695 167.25V163.425C46.4695 163.245 46.5295 163.095 46.6495 162.975C46.7695 162.855 46.9195 162.795 47.0995 162.795C47.2795 162.795 47.4295 162.855 47.5495 162.975C47.6695 163.095 47.7295 163.245 47.7295 163.425V167.25C47.7295 167.86 47.8445 168.36 48.0745 168.75C48.3045 169.13 48.6145 169.42 49.0045 169.62C49.3945 169.81 49.8345 169.905 50.3245 169.905C50.7945 169.905 51.2195 169.815 51.5995 169.635C51.9795 169.445 52.2795 169.195 52.4995 168.885C52.7195 168.565 52.8295 168.2 52.8295 167.79H53.6845C53.6645 168.42 53.4995 168.985 53.1895 169.485C52.8795 169.975 52.4595 170.365 51.9295 170.655C51.3995 170.945 50.8095 171.09 50.1595 171.09ZM53.4595 171C53.2695 171 53.1145 170.945 52.9945 170.835C52.8845 170.715 52.8295 170.555 52.8295 170.355V163.425C52.8295 163.235 52.8845 163.085 52.9945 162.975C53.1145 162.855 53.2695 162.795 53.4595 162.795C53.6495 162.795 53.8045 162.855 53.9245 162.975C54.0445 163.085 54.1045 163.235 54.1045 163.425V170.355C54.1045 170.555 54.0445 170.715 53.9245 170.835C53.8045 170.945 53.6495 171 53.4595 171ZM87.2643 171.075C86.4743 171.075 85.7693 170.895 85.1493 170.535C84.5293 170.165 84.0393 169.665 83.6793 169.035C83.3293 168.405 83.1543 167.695 83.1543 166.905C83.1543 166.105 83.3243 165.39 83.6643 164.76C84.0143 164.13 84.4843 163.635 85.0743 163.275C85.6743 162.905 86.3643 162.72 87.1443 162.72C87.7443 162.72 88.2993 162.84 88.8093 163.08C89.3193 163.31 89.7693 163.66 90.1593 164.13C90.2793 164.27 90.3193 164.415 90.2793 164.565C90.2493 164.705 90.1593 164.83 90.0093 164.94C89.8893 165.02 89.7543 165.05 89.6043 165.03C89.4643 165 89.3343 164.92 89.2143 164.79C88.6643 164.17 87.9743 163.86 87.1443 163.86C86.5943 163.86 86.1093 163.99 85.6893 164.25C85.2793 164.51 84.9593 164.87 84.7293 165.33C84.4993 165.78 84.3843 166.305 84.3843 166.905C84.3843 167.485 84.5043 168.005 84.7443 168.465C84.9943 168.915 85.3343 169.275 85.7643 169.545C86.2043 169.805 86.7043 169.935 87.2643 169.935C87.6443 169.935 87.9843 169.885 88.2843 169.785C88.5943 169.685 88.8693 169.53 89.1093 169.32C89.2493 169.21 89.3893 169.15 89.5293 169.14C89.6693 169.13 89.7993 169.17 89.9193 169.26C90.0493 169.38 90.1243 169.515 90.1443 169.665C90.1643 169.815 90.1143 169.95 89.9943 170.07C89.2643 170.74 88.3543 171.075 87.2643 171.075ZM102.094 171.075C101.334 171.075 100.654 170.895 100.054 170.535C99.4545 170.165 98.9795 169.665 98.6295 169.035C98.2795 168.405 98.1045 167.695 98.1045 166.905C98.1045 166.105 98.2845 165.39 98.6445 164.76C99.0145 164.13 99.5145 163.635 100.144 163.275C100.774 162.905 101.484 162.72 102.274 162.72C103.054 162.72 103.754 162.905 104.374 163.275C105.004 163.635 105.499 164.13 105.859 164.76C106.229 165.39 106.419 166.105 106.429 166.905L105.919 167.16C105.919 167.9 105.749 168.565 105.409 169.155C105.079 169.745 104.624 170.215 104.044 170.565C103.474 170.905 102.824 171.075 102.094 171.075ZM102.274 169.935C102.834 169.935 103.329 169.805 103.759 169.545C104.199 169.275 104.544 168.91 104.794 168.45C105.054 167.99 105.184 167.475 105.184 166.905C105.184 166.325 105.054 165.81 104.794 165.36C104.544 164.9 104.199 164.535 103.759 164.265C103.329 163.995 102.834 163.86 102.274 163.86C101.724 163.86 101.224 163.995 100.774 164.265C100.334 164.535 99.9845 164.9 99.7245 165.36C99.4645 165.81 99.3345 166.325 99.3345 166.905C99.3345 167.475 99.4645 167.99 99.7245 168.45C99.9845 168.91 100.334 169.275 100.774 169.545C101.224 169.805 101.724 169.935 102.274 169.935ZM105.784 171C105.604 171 105.449 170.945 105.319 170.835C105.199 170.715 105.139 170.56 105.139 170.37V167.895L105.424 166.59L106.429 166.905V170.37C106.429 170.56 106.369 170.715 106.249 170.835C106.129 170.945 105.974 171 105.784 171ZM121.681 171C121.491 171 121.336 170.94 121.216 170.82C121.096 170.7 121.036 170.55 121.036 170.37V166.545C121.036 165.935 120.921 165.44 120.691 165.06C120.471 164.67 120.166 164.38 119.776 164.19C119.386 163.99 118.941 163.89 118.441 163.89C117.971 163.89 117.546 163.985 117.166 164.175C116.796 164.355 116.501 164.605 116.281 164.925C116.061 165.235 115.951 165.595 115.951 166.005H115.081C115.101 165.375 115.266 164.815 115.576 164.325C115.896 163.825 116.321 163.43 116.851 163.14C117.381 162.85 117.971 162.705 118.621 162.705C119.321 162.705 119.946 162.855 120.496 163.155C121.056 163.445 121.496 163.875 121.816 164.445C122.146 165.015 122.311 165.715 122.311 166.545V170.37C122.311 170.55 122.251 170.7 122.131 170.82C122.011 170.94 121.861 171 121.681 171ZM115.321 171C115.121 171 114.961 170.945 114.841 170.835C114.731 170.715 114.676 170.56 114.676 170.37V163.44C114.676 163.24 114.731 163.085 114.841 162.975C114.961 162.855 115.121 162.795 115.321 162.795C115.511 162.795 115.661 162.855 115.771 162.975C115.891 163.085 115.951 163.24 115.951 163.44V170.37C115.951 170.56 115.891 170.715 115.771 170.835C115.661 170.945 115.511 171 115.321 171ZM158.651 171C158.461 171 158.306 170.94 158.186 170.82C158.066 170.7 158.006 170.55 158.006 170.37V166.545C158.006 165.935 157.891 165.44 157.661 165.06C157.441 164.67 157.136 164.38 156.746 164.19C156.356 163.99 155.911 163.89 155.411 163.89C154.941 163.89 154.516 163.985 154.136 164.175C153.766 164.355 153.471 164.605 153.251 164.925C153.031 165.235 152.921 165.595 152.921 166.005H152.051C152.071 165.375 152.236 164.815 152.546 164.325C152.866 163.825 153.291 163.43 153.821 163.14C154.351 162.85 154.941 162.705 155.591 162.705C156.291 162.705 156.916 162.855 157.466 163.155C158.026 163.445 158.466 163.875 158.786 164.445C159.116 165.015 159.281 165.715 159.281 166.545V170.37C159.281 170.55 159.221 170.7 159.101 170.82C158.981 170.94 158.831 171 158.651 171ZM152.291 171C152.091 171 151.931 170.945 151.811 170.835C151.701 170.715 151.646 170.56 151.646 170.37V163.44C151.646 163.24 151.701 163.085 151.811 162.975C151.931 162.855 152.091 162.795 152.291 162.795C152.481 162.795 152.631 162.855 152.741 162.975C152.861 163.085 152.921 163.24 152.921 163.44V170.37C152.921 170.56 152.861 170.715 152.741 170.835C152.631 170.945 152.481 171 152.291 171ZM171.592 171.075C170.772 171.075 170.047 170.9 169.417 170.55C168.787 170.19 168.292 169.695 167.932 169.065C167.572 168.435 167.392 167.715 167.392 166.905C167.392 166.085 167.562 165.365 167.902 164.745C168.242 164.115 168.707 163.62 169.297 163.26C169.897 162.9 170.587 162.72 171.367 162.72C172.127 162.72 172.787 162.895 173.347 163.245C173.917 163.585 174.352 164.06 174.652 164.67C174.962 165.28 175.117 165.975 175.117 166.755C175.117 166.925 175.062 167.065 174.952 167.175C174.842 167.275 174.702 167.325 174.532 167.325H168.262V166.29H174.607L173.962 166.74C173.972 166.19 173.872 165.695 173.662 165.255C173.452 164.815 173.152 164.47 172.762 164.22C172.372 163.97 171.907 163.845 171.367 163.845C170.797 163.845 170.297 163.975 169.867 164.235C169.447 164.495 169.122 164.86 168.892 165.33C168.672 165.79 168.562 166.315 168.562 166.905C168.562 167.495 168.692 168.02 168.952 168.48C169.212 168.94 169.567 169.3 170.017 169.56C170.477 169.82 171.002 169.95 171.592 169.95C171.932 169.95 172.277 169.89 172.627 169.77C172.987 169.65 173.272 169.5 173.482 169.32C173.602 169.23 173.737 169.185 173.887 169.185C174.047 169.175 174.177 169.215 174.277 169.305C174.427 169.435 174.502 169.575 174.502 169.725C174.512 169.875 174.447 170.005 174.307 170.115C173.977 170.395 173.557 170.625 173.047 170.805C172.537 170.985 172.052 171.075 171.592 171.075ZM185.567 171C185.307 171 185.112 170.86 184.982 170.58L181.697 163.62C181.627 163.48 181.617 163.34 181.667 163.2C181.727 163.06 181.837 162.95 181.997 162.87C182.147 162.79 182.292 162.78 182.432 162.84C182.582 162.89 182.697 162.985 182.777 163.125L185.897 169.89H185.252L188.342 163.125C188.402 162.975 188.512 162.875 188.672 162.825C188.832 162.775 188.987 162.785 189.137 162.855C189.297 162.935 189.402 163.05 189.452 163.2C189.502 163.34 189.497 163.475 189.437 163.605L186.182 170.58C186.052 170.86 185.847 171 185.567 171ZM200.511 171.075C199.691 171.075 198.966 170.9 198.336 170.55C197.706 170.19 197.211 169.695 196.851 169.065C196.491 168.435 196.311 167.715 196.311 166.905C196.311 166.085 196.481 165.365 196.821 164.745C197.161 164.115 197.626 163.62 198.216 163.26C198.816 162.9 199.506 162.72 200.286 162.72C201.046 162.72 201.706 162.895 202.266 163.245C202.836 163.585 203.271 164.06 203.571 164.67C203.881 165.28 204.036 165.975 204.036 166.755C204.036 166.925 203.981 167.065 203.871 167.175C203.761 167.275 203.621 167.325 203.451 167.325H197.181V166.29H203.526L202.881 166.74C202.891 166.19 202.791 165.695 202.581 165.255C202.371 164.815 202.071 164.47 201.681 164.22C201.291 163.97 200.826 163.845 200.286 163.845C199.716 163.845 199.216 163.975 198.786 164.235C198.366 164.495 198.041 164.86 197.811 165.33C197.591 165.79 197.481 166.315 197.481 166.905C197.481 167.495 197.611 168.02 197.871 168.48C198.131 168.94 198.486 169.3 198.936 169.56C199.396 169.82 199.921 169.95 200.511 169.95C200.851 169.95 201.196 169.89 201.546 169.77C201.906 169.65 202.191 169.5 202.401 169.32C202.521 169.23 202.656 169.185 202.806 169.185C202.966 169.175 203.096 169.215 203.196 169.305C203.346 169.435 203.421 169.575 203.421 169.725C203.431 169.875 203.366 170.005 203.226 170.115C202.896 170.395 202.476 170.625 201.966 170.805C201.456 170.985 200.971 171.075 200.511 171.075ZM212.544 165.915C212.564 165.305 212.719 164.76 213.009 164.28C213.309 163.79 213.699 163.405 214.179 163.125C214.669 162.845 215.204 162.705 215.784 162.705C216.294 162.705 216.679 162.78 216.939 162.93C217.209 163.08 217.309 163.285 217.239 163.545C217.209 163.685 217.144 163.785 217.044 163.845C216.954 163.905 216.844 163.935 216.714 163.935C216.594 163.935 216.454 163.925 216.294 163.905C215.704 163.835 215.179 163.875 214.719 164.025C214.269 164.165 213.909 164.4 213.639 164.73C213.369 165.06 213.234 165.455 213.234 165.915H212.544ZM212.619 171C212.419 171 212.264 170.945 212.154 170.835C212.044 170.725 211.989 170.57 211.989 170.37V163.425C211.989 163.225 212.044 163.07 212.154 162.96C212.264 162.85 212.419 162.795 212.619 162.795C212.819 162.795 212.969 162.85 213.069 162.96C213.179 163.07 213.234 163.225 213.234 163.425V170.37C213.234 170.57 213.179 170.725 213.069 170.835C212.969 170.945 212.819 171 212.619 171ZM246.425 167.76C246.225 167.76 246.065 167.7 245.945 167.58C245.835 167.46 245.78 167.31 245.78 167.13V159.93C245.78 159.73 245.835 159.575 245.945 159.465C246.065 159.345 246.225 159.285 246.425 159.285C246.615 159.285 246.765 159.345 246.875 159.465C246.995 159.575 247.055 159.73 247.055 159.93V167.13C247.055 167.31 246.995 167.46 246.875 167.58C246.765 167.7 246.615 167.76 246.425 167.76ZM252.785 171C252.595 171 252.44 170.94 252.32 170.82C252.2 170.7 252.14 170.55 252.14 170.37V166.545C252.14 165.935 252.025 165.44 251.795 165.06C251.575 164.67 251.27 164.38 250.88 164.19C250.49 163.99 250.045 163.89 249.545 163.89C249.075 163.89 248.65 163.985 248.27 164.175C247.9 164.355 247.605 164.605 247.385 164.925C247.165 165.235 247.055 165.595 247.055 166.005H246.185C246.205 165.375 246.37 164.815 246.68 164.325C247 163.825 247.425 163.43 247.955 163.14C248.485 162.85 249.075 162.705 249.725 162.705C250.425 162.705 251.05 162.855 251.6 163.155C252.16 163.445 252.6 163.875 252.92 164.445C253.25 165.015 253.415 165.715 253.415 166.545V170.37C253.415 170.55 253.355 170.7 253.235 170.82C253.115 170.94 252.965 171 252.785 171ZM246.425 171C246.225 171 246.065 170.945 245.945 170.835C245.835 170.715 245.78 170.56 245.78 170.37V163.44C245.78 163.24 245.835 163.085 245.945 162.975C246.065 162.855 246.225 162.795 246.425 162.795C246.615 162.795 246.765 162.855 246.875 162.975C246.995 163.085 247.055 163.24 247.055 163.44V170.37C247.055 170.56 246.995 170.715 246.875 170.835C246.765 170.945 246.615 171 246.425 171ZM265.515 171.075C264.755 171.075 264.075 170.895 263.475 170.535C262.875 170.165 262.4 169.665 262.05 169.035C261.7 168.405 261.525 167.695 261.525 166.905C261.525 166.105 261.705 165.39 262.065 164.76C262.435 164.13 262.935 163.635 263.565 163.275C264.195 162.905 264.905 162.72 265.695 162.72C266.475 162.72 267.175 162.905 267.795 163.275C268.425 163.635 268.92 164.13 269.28 164.76C269.65 165.39 269.84 166.105 269.85 166.905L269.34 167.16C269.34 167.9 269.17 168.565 268.83 169.155C268.5 169.745 268.045 170.215 267.465 170.565C266.895 170.905 266.245 171.075 265.515 171.075ZM265.695 169.935C266.255 169.935 266.75 169.805 267.18 169.545C267.62 169.275 267.965 168.91 268.215 168.45C268.475 167.99 268.605 167.475 268.605 166.905C268.605 166.325 268.475 165.81 268.215 165.36C267.965 164.9 267.62 164.535 267.18 164.265C266.75 163.995 266.255 163.86 265.695 163.86C265.145 163.86 264.645 163.995 264.195 164.265C263.755 164.535 263.405 164.9 263.145 165.36C262.885 165.81 262.755 166.325 262.755 166.905C262.755 167.475 262.885 167.99 263.145 168.45C263.405 168.91 263.755 169.275 264.195 169.545C264.645 169.805 265.145 169.935 265.695 169.935ZM269.205 171C269.025 171 268.87 170.945 268.74 170.835C268.62 170.715 268.56 170.56 268.56 170.37V167.895L268.845 166.59L269.85 166.905V170.37C269.85 170.56 269.79 170.715 269.67 170.835C269.55 170.945 269.395 171 269.205 171ZM280.433 171C280.173 171 279.978 170.86 279.848 170.58L276.563 163.62C276.493 163.48 276.483 163.34 276.533 163.2C276.593 163.06 276.703 162.95 276.863 162.87C277.013 162.79 277.158 162.78 277.298 162.84C277.448 162.89 277.563 162.985 277.643 163.125L280.763 169.89H280.118L283.208 163.125C283.268 162.975 283.378 162.875 283.538 162.825C283.698 162.775 283.853 162.785 284.003 162.855C284.163 162.935 284.268 163.05 284.318 163.2C284.368 163.34 284.363 163.475 284.303 163.605L281.048 170.58C280.918 170.86 280.713 171 280.433 171ZM295.377 171.075C294.557 171.075 293.832 170.9 293.202 170.55C292.572 170.19 292.077 169.695 291.717 169.065C291.357 168.435 291.177 167.715 291.177 166.905C291.177 166.085 291.347 165.365 291.687 164.745C292.027 164.115 292.492 163.62 293.082 163.26C293.682 162.9 294.372 162.72 295.152 162.72C295.912 162.72 296.572 162.895 297.132 163.245C297.702 163.585 298.137 164.06 298.437 164.67C298.747 165.28 298.902 165.975 298.902 166.755C298.902 166.925 298.847 167.065 298.737 167.175C298.627 167.275 298.487 167.325 298.317 167.325H292.047V166.29H298.392L297.747 166.74C297.757 166.19 297.657 165.695 297.447 165.255C297.237 164.815 296.937 164.47 296.547 164.22C296.157 163.97 295.692 163.845 295.152 163.845C294.582 163.845 294.082 163.975 293.652 164.235C293.232 164.495 292.907 164.86 292.677 165.33C292.457 165.79 292.347 166.315 292.347 166.905C292.347 167.495 292.477 168.02 292.737 168.48C292.997 168.94 293.352 169.3 293.802 169.56C294.262 169.82 294.787 169.95 295.377 169.95C295.717 169.95 296.062 169.89 296.412 169.77C296.772 169.65 297.057 169.5 297.267 169.32C297.387 169.23 297.522 169.185 297.672 169.185C297.832 169.175 297.962 169.215 298.062 169.305C298.212 169.435 298.287 169.575 298.287 169.725C298.297 169.875 298.232 170.005 298.092 170.115C297.762 170.395 297.342 170.625 296.832 170.805C296.322 170.985 295.837 171.075 295.377 171.075ZM330.779 171C330.259 171 329.794 170.875 329.384 170.625C328.974 170.375 328.649 170.03 328.409 169.59C328.179 169.15 328.064 168.655 328.064 168.105V160.815C328.064 160.635 328.119 160.485 328.229 160.365C328.349 160.245 328.504 160.185 328.694 160.185C328.874 160.185 329.024 160.245 329.144 160.365C329.264 160.485 329.324 160.635 329.324 160.815V168.105C329.324 168.575 329.459 168.965 329.729 169.275C330.009 169.585 330.359 169.74 330.779 169.74H331.229C331.389 169.74 331.524 169.8 331.634 169.92C331.744 170.04 331.799 170.19 331.799 170.37C331.799 170.56 331.729 170.715 331.589 170.835C331.459 170.945 331.289 171 331.079 171H330.779ZM327.179 164.19C327.009 164.19 326.869 164.14 326.759 164.04C326.649 163.93 326.594 163.8 326.594 163.65C326.594 163.49 326.649 163.36 326.759 163.26C326.869 163.15 327.009 163.095 327.179 163.095H330.884C331.054 163.095 331.194 163.15 331.304 163.26C331.414 163.36 331.469 163.49 331.469 163.65C331.469 163.8 331.414 163.93 331.304 164.04C331.194 164.14 331.054 164.19 330.884 164.19H327.179ZM343.414 171.075C342.604 171.075 341.884 170.895 341.254 170.535C340.634 170.175 340.144 169.68 339.784 169.05C339.424 168.42 339.244 167.705 339.244 166.905C339.244 166.095 339.424 165.375 339.784 164.745C340.144 164.115 340.634 163.62 341.254 163.26C341.884 162.9 342.604 162.72 343.414 162.72C344.214 162.72 344.924 162.9 345.544 163.26C346.164 163.62 346.654 164.115 347.014 164.745C347.374 165.375 347.559 166.095 347.569 166.905C347.569 167.705 347.389 168.42 347.029 169.05C346.669 169.68 346.174 170.175 345.544 170.535C344.924 170.895 344.214 171.075 343.414 171.075ZM343.414 169.935C343.974 169.935 344.474 169.805 344.914 169.545C345.354 169.275 345.699 168.915 345.949 168.465C346.199 168.005 346.324 167.485 346.324 166.905C346.324 166.325 346.199 165.805 345.949 165.345C345.699 164.885 345.354 164.525 344.914 164.265C344.474 163.995 343.974 163.86 343.414 163.86C342.854 163.86 342.349 163.995 341.899 164.265C341.459 164.525 341.109 164.885 340.849 165.345C340.599 165.805 340.474 166.325 340.474 166.905C340.474 167.485 340.599 168.005 340.849 168.465C341.109 168.915 341.459 169.275 341.899 169.545C342.349 169.805 342.854 169.935 343.414 169.935ZM359.551 171.075C358.741 171.075 358.021 170.895 357.391 170.535C356.771 170.175 356.281 169.68 355.921 169.05C355.561 168.42 355.381 167.705 355.381 166.905C355.381 166.095 355.561 165.375 355.921 164.745C356.281 164.115 356.771 163.62 357.391 163.26C358.021 162.9 358.741 162.72 359.551 162.72C360.351 162.72 361.061 162.9 361.681 163.26C362.301 163.62 362.791 164.115 363.151 164.745C363.511 165.375 363.696 166.095 363.706 166.905C363.706 167.705 363.526 168.42 363.166 169.05C362.806 169.68 362.311 170.175 361.681 170.535C361.061 170.895 360.351 171.075 359.551 171.075ZM359.551 169.935C360.111 169.935 360.611 169.805 361.051 169.545C361.491 169.275 361.836 168.915 362.086 168.465C362.336 168.005 362.461 167.485 362.461 166.905C362.461 166.325 362.336 165.805 362.086 165.345C361.836 164.885 361.491 164.525 361.051 164.265C360.611 163.995 360.111 163.86 359.551 163.86C358.991 163.86 358.486 163.995 358.036 164.265C357.596 164.525 357.246 164.885 356.986 165.345C356.736 165.805 356.611 166.325 356.611 166.905C356.611 167.485 356.736 168.005 356.986 168.465C357.246 168.915 357.596 169.275 358.036 169.545C358.486 169.805 358.991 169.935 359.551 169.935ZM403.737 171C403.547 171 403.392 170.945 403.272 170.835C403.152 170.715 403.092 170.56 403.092 170.37V166.065C403.092 165.375 402.917 164.84 402.567 164.46C402.217 164.08 401.762 163.89 401.202 163.89C400.612 163.89 400.127 164.09 399.747 164.49C399.377 164.89 399.192 165.415 399.192 166.065H398.097C398.107 165.395 398.252 164.81 398.532 164.31C398.812 163.8 399.197 163.405 399.687 163.125C400.187 162.845 400.752 162.705 401.382 162.705C401.962 162.705 402.477 162.84 402.927 163.11C403.377 163.38 403.727 163.77 403.977 164.28C404.237 164.78 404.367 165.375 404.367 166.065V170.37C404.367 170.56 404.307 170.715 404.187 170.835C404.067 170.945 403.917 171 403.737 171ZM393.387 171C393.187 171 393.027 170.945 392.907 170.835C392.797 170.715 392.742 170.56 392.742 170.37V163.44C392.742 163.25 392.797 163.095 392.907 162.975C393.027 162.855 393.187 162.795 393.387 162.795C393.577 162.795 393.727 162.855 393.837 162.975C393.957 163.095 394.017 163.25 394.017 163.44V170.37C394.017 170.56 393.957 170.715 393.837 170.835C393.727 170.945 393.577 171 393.387 171ZM398.562 171C398.382 171 398.232 170.945 398.112 170.835C397.992 170.715 397.932 170.56 397.932 170.37V166.065C397.932 165.375 397.752 164.84 397.392 164.46C397.042 164.08 396.592 163.89 396.042 163.89C395.452 163.89 394.967 164.085 394.587 164.475C394.207 164.865 394.017 165.375 394.017 166.005H393.147C393.167 165.355 393.307 164.785 393.567 164.295C393.827 163.795 394.187 163.405 394.647 163.125C395.107 162.845 395.632 162.705 396.222 162.705C396.802 162.705 397.317 162.84 397.767 163.11C398.217 163.38 398.567 163.77 398.817 164.28C399.067 164.78 399.192 165.375 399.192 166.065V170.37C399.192 170.56 399.132 170.715 399.012 170.835C398.902 170.945 398.752 171 398.562 171ZM416.462 171.075C415.702 171.075 415.022 170.895 414.422 170.535C413.822 170.165 413.347 169.665 412.997 169.035C412.647 168.405 412.472 167.695 412.472 166.905C412.472 166.105 412.652 165.39 413.012 164.76C413.382 164.13 413.882 163.635 414.512 163.275C415.142 162.905 415.852 162.72 416.642 162.72C417.422 162.72 418.122 162.905 418.742 163.275C419.372 163.635 419.867 164.13 420.227 164.76C420.597 165.39 420.787 166.105 420.797 166.905L420.287 167.16C420.287 167.9 420.117 168.565 419.777 169.155C419.447 169.745 418.992 170.215 418.412 170.565C417.842 170.905 417.192 171.075 416.462 171.075ZM416.642 169.935C417.202 169.935 417.697 169.805 418.127 169.545C418.567 169.275 418.912 168.91 419.162 168.45C419.422 167.99 419.552 167.475 419.552 166.905C419.552 166.325 419.422 165.81 419.162 165.36C418.912 164.9 418.567 164.535 418.127 164.265C417.697 163.995 417.202 163.86 416.642 163.86C416.092 163.86 415.592 163.995 415.142 164.265C414.702 164.535 414.352 164.9 414.092 165.36C413.832 165.81 413.702 166.325 413.702 166.905C413.702 167.475 413.832 167.99 414.092 168.45C414.352 168.91 414.702 169.275 415.142 169.545C415.592 169.805 416.092 169.935 416.642 169.935ZM420.152 171C419.972 171 419.817 170.945 419.687 170.835C419.567 170.715 419.507 170.56 419.507 170.37V167.895L419.792 166.59L420.797 166.905V170.37C420.797 170.56 420.737 170.715 420.617 170.835C420.497 170.945 420.342 171 420.152 171ZM436.048 171C435.858 171 435.703 170.94 435.583 170.82C435.463 170.7 435.403 170.55 435.403 170.37V166.545C435.403 165.935 435.288 165.44 435.058 165.06C434.838 164.67 434.533 164.38 434.143 164.19C433.753 163.99 433.308 163.89 432.808 163.89C432.338 163.89 431.913 163.985 431.533 164.175C431.163 164.355 430.868 164.605 430.648 164.925C430.428 165.235 430.318 165.595 430.318 166.005H429.448C429.468 165.375 429.633 164.815 429.943 164.325C430.263 163.825 430.688 163.43 431.218 163.14C431.748 162.85 432.338 162.705 432.988 162.705C433.688 162.705 434.313 162.855 434.863 163.155C435.423 163.445 435.863 163.875 436.183 164.445C436.513 165.015 436.678 165.715 436.678 166.545V170.37C436.678 170.55 436.618 170.7 436.498 170.82C436.378 170.94 436.228 171 436.048 171ZM429.688 171C429.488 171 429.328 170.945 429.208 170.835C429.098 170.715 429.043 170.56 429.043 170.37V163.44C429.043 163.24 429.098 163.085 429.208 162.975C429.328 162.855 429.488 162.795 429.688 162.795C429.878 162.795 430.028 162.855 430.138 162.975C430.258 163.085 430.318 163.24 430.318 163.44V170.37C430.318 170.56 430.258 170.715 430.138 170.835C430.028 170.945 429.878 171 429.688 171ZM446.649 174.585C446.569 174.585 446.469 174.56 446.349 174.51C445.979 174.34 445.879 174.075 446.049 173.715L450.804 163.14C450.974 162.79 451.239 162.695 451.599 162.855C451.969 163.005 452.074 163.265 451.914 163.635L447.129 174.195C447.029 174.455 446.869 174.585 446.649 174.585ZM448.344 170.715C448.184 170.795 448.034 170.81 447.894 170.76C447.754 170.71 447.639 170.6 447.549 170.43L444.189 163.635C444.109 163.465 444.094 163.31 444.144 163.17C444.204 163.03 444.314 162.92 444.474 162.84C444.644 162.77 444.799 162.76 444.939 162.81C445.079 162.86 445.189 162.965 445.269 163.125L448.554 169.935C448.634 170.095 448.659 170.25 448.629 170.4C448.609 170.54 448.514 170.645 448.344 170.715ZM480.832 174.51C480.632 174.51 480.472 174.45 480.352 174.33C480.242 174.22 480.187 174.065 480.187 173.865V166.86C480.197 166.08 480.382 165.38 480.742 164.76C481.112 164.13 481.607 163.635 482.227 163.275C482.847 162.905 483.547 162.72 484.327 162.72C485.127 162.72 485.837 162.905 486.457 163.275C487.087 163.635 487.582 164.13 487.942 164.76C488.312 165.39 488.497 166.105 488.497 166.905C488.497 167.695 488.322 168.405 487.972 169.035C487.632 169.665 487.162 170.165 486.562 170.535C485.962 170.895 485.282 171.075 484.522 171.075C483.872 171.075 483.282 170.94 482.752 170.67C482.222 170.39 481.792 170.025 481.462 169.575V173.865C481.462 174.065 481.402 174.22 481.282 174.33C481.162 174.45 481.012 174.51 480.832 174.51ZM484.327 169.935C484.887 169.935 485.387 169.805 485.827 169.545C486.277 169.275 486.627 168.91 486.877 168.45C487.137 167.99 487.267 167.475 487.267 166.905C487.267 166.325 487.137 165.81 486.877 165.36C486.627 164.9 486.277 164.535 485.827 164.265C485.387 163.995 484.887 163.86 484.327 163.86C483.787 163.86 483.292 163.995 482.842 164.265C482.402 164.535 482.057 164.9 481.807 165.36C481.557 165.81 481.432 166.325 481.432 166.905C481.432 167.475 481.557 167.99 481.807 168.45C482.057 168.91 482.402 169.275 482.842 169.545C483.282 169.805 483.777 169.935 484.327 169.935ZM498.608 171C498.188 171 497.818 170.89 497.498 170.67C497.178 170.44 496.928 170.125 496.748 169.725C496.568 169.325 496.478 168.865 496.478 168.345V159.915C496.478 159.725 496.533 159.575 496.643 159.465C496.763 159.345 496.918 159.285 497.108 159.285C497.288 159.285 497.433 159.345 497.543 159.465C497.663 159.575 497.723 159.725 497.723 159.915V168.345C497.723 168.755 497.803 169.095 497.963 169.365C498.133 169.625 498.348 169.755 498.608 169.755H498.983C499.143 169.755 499.273 169.815 499.373 169.935C499.473 170.045 499.523 170.19 499.523 170.37C499.523 170.56 499.448 170.715 499.298 170.835C499.158 170.945 498.973 171 498.743 171H498.608ZM510.2 171.075C509.44 171.075 508.76 170.895 508.16 170.535C507.56 170.165 507.085 169.665 506.735 169.035C506.385 168.405 506.21 167.695 506.21 166.905C506.21 166.105 506.39 165.39 506.75 164.76C507.12 164.13 507.62 163.635 508.25 163.275C508.88 162.905 509.59 162.72 510.38 162.72C511.16 162.72 511.86 162.905 512.48 163.275C513.11 163.635 513.605 164.13 513.965 164.76C514.335 165.39 514.525 166.105 514.535 166.905L514.025 167.16C514.025 167.9 513.855 168.565 513.515 169.155C513.185 169.745 512.73 170.215 512.15 170.565C511.58 170.905 510.93 171.075 510.2 171.075ZM510.38 169.935C510.94 169.935 511.435 169.805 511.865 169.545C512.305 169.275 512.65 168.91 512.9 168.45C513.16 167.99 513.29 167.475 513.29 166.905C513.29 166.325 513.16 165.81 512.9 165.36C512.65 164.9 512.305 164.535 511.865 164.265C511.435 163.995 510.94 163.86 510.38 163.86C509.83 163.86 509.33 163.995 508.88 164.265C508.44 164.535 508.09 164.9 507.83 165.36C507.57 165.81 507.44 166.325 507.44 166.905C507.44 167.475 507.57 167.99 507.83 168.45C508.09 168.91 508.44 169.275 508.88 169.545C509.33 169.805 509.83 169.935 510.38 169.935ZM513.89 171C513.71 171 513.555 170.945 513.425 170.835C513.305 170.715 513.245 170.56 513.245 170.37V167.895L513.53 166.59L514.535 166.905V170.37C514.535 170.56 514.475 170.715 514.355 170.835C514.235 170.945 514.08 171 513.89 171ZM529.787 171C529.597 171 529.442 170.94 529.322 170.82C529.202 170.7 529.142 170.55 529.142 170.37V166.545C529.142 165.935 529.027 165.44 528.797 165.06C528.577 164.67 528.272 164.38 527.882 164.19C527.492 163.99 527.047 163.89 526.547 163.89C526.077 163.89 525.652 163.985 525.272 164.175C524.902 164.355 524.607 164.605 524.387 164.925C524.167 165.235 524.057 165.595 524.057 166.005H523.187C523.207 165.375 523.372 164.815 523.682 164.325C524.002 163.825 524.427 163.43 524.957 163.14C525.487 162.85 526.077 162.705 526.727 162.705C527.427 162.705 528.052 162.855 528.602 163.155C529.162 163.445 529.602 163.875 529.922 164.445C530.252 165.015 530.417 165.715 530.417 166.545V170.37C530.417 170.55 530.357 170.7 530.237 170.82C530.117 170.94 529.967 171 529.787 171ZM523.427 171C523.227 171 523.067 170.945 522.947 170.835C522.837 170.715 522.782 170.56 522.782 170.37V163.44C522.782 163.24 522.837 163.085 522.947 162.975C523.067 162.855 523.227 162.795 523.427 162.795C523.617 162.795 523.767 162.855 523.877 162.975C523.997 163.085 524.057 163.24 524.057 163.44V170.37C524.057 170.56 523.997 170.715 523.877 170.835C523.767 170.945 523.617 171 523.427 171ZM542.097 171C541.577 171 541.112 170.875 540.702 170.625C540.292 170.375 539.967 170.03 539.727 169.59C539.497 169.15 539.382 168.655 539.382 168.105V160.815C539.382 160.635 539.437 160.485 539.547 160.365C539.667 160.245 539.822 160.185 540.012 160.185C540.192 160.185 540.342 160.245 540.462 160.365C540.582 160.485 540.642 160.635 540.642 160.815V168.105C540.642 168.575 540.777 168.965 541.047 169.275C541.327 169.585 541.677 169.74 542.097 169.74H542.547C542.707 169.74 542.842 169.8 542.952 169.92C543.062 170.04 543.117 170.19 543.117 170.37C543.117 170.56 543.047 170.715 542.907 170.835C542.777 170.945 542.607 171 542.397 171H542.097ZM538.497 164.19C538.327 164.19 538.187 164.14 538.077 164.04C537.967 163.93 537.912 163.8 537.912 163.65C537.912 163.49 537.967 163.36 538.077 163.26C538.187 163.15 538.327 163.095 538.497 163.095H542.202C542.372 163.095 542.512 163.15 542.622 163.26C542.732 163.36 542.787 163.49 542.787 163.65C542.787 163.8 542.732 163.93 542.622 164.04C542.512 164.14 542.372 164.19 542.202 164.19H538.497ZM553.892 171.075C553.272 171.075 552.667 170.975 552.077 170.775C551.497 170.565 551.032 170.27 550.682 169.89C550.562 169.76 550.512 169.61 550.532 169.44C550.552 169.27 550.632 169.13 550.772 169.02C550.932 168.9 551.092 168.85 551.252 168.87C551.422 168.89 551.562 168.96 551.672 169.08C551.892 169.34 552.197 169.55 552.587 169.71C552.977 169.86 553.407 169.935 553.877 169.935C554.567 169.935 555.072 169.82 555.392 169.59C555.722 169.35 555.892 169.055 555.902 168.705C555.902 168.365 555.737 168.08 555.407 167.85C555.087 167.62 554.537 167.44 553.757 167.31C552.747 167.14 552.007 166.855 551.537 166.455C551.077 166.055 550.847 165.575 550.847 165.015C550.847 164.505 550.987 164.08 551.267 163.74C551.547 163.4 551.912 163.145 552.362 162.975C552.822 162.805 553.317 162.72 553.847 162.72C554.517 162.72 555.097 162.835 555.587 163.065C556.077 163.285 556.472 163.585 556.772 163.965C556.882 164.105 556.927 164.255 556.907 164.415C556.897 164.565 556.817 164.685 556.667 164.775C556.537 164.865 556.382 164.895 556.202 164.865C556.032 164.835 555.887 164.755 555.767 164.625C555.517 164.355 555.232 164.16 554.912 164.04C554.592 163.91 554.227 163.845 553.817 163.845C553.297 163.845 552.877 163.95 552.557 164.16C552.237 164.36 552.077 164.62 552.077 164.94C552.077 165.16 552.132 165.35 552.242 165.51C552.362 165.67 552.567 165.815 552.857 165.945C553.157 166.065 553.582 166.175 554.132 166.275C554.882 166.405 555.472 166.59 555.902 166.83C556.342 167.06 556.652 167.33 556.832 167.64C557.022 167.95 557.117 168.295 557.117 168.675C557.117 169.145 556.982 169.56 556.712 169.92C556.452 170.27 556.082 170.55 555.602 170.76C555.122 170.97 554.552 171.075 553.892 171.075Z" fill="#FFFBF8"/>
<path d="M108.4 30C108.213 30 108.067 29.9467 107.96 29.84C107.853 29.7333 107.8 29.5867 107.8 29.4V19.66C107.8 19.46 107.853 19.3133 107.96 19.22C108.067 19.1133 108.213 19.06 108.4 19.06C108.693 19.06 108.927 19.1933 109.1 19.46L113.7 26.14L118.3 19.46C118.473 19.1933 118.707 19.06 119 19.06C119.187 19.06 119.333 19.1133 119.44 19.22C119.547 19.3133 119.6 19.46 119.6 19.66V29.4C119.6 29.5867 119.547 29.7333 119.44 29.84C119.333 29.9467 119.187 30 119 30C118.8 30 118.647 29.9467 118.54 29.84C118.447 29.7333 118.4 29.5867 118.4 29.4V20.26L118.9 20.42L114.2 27.28C114.067 27.4533 113.9 27.54 113.7 27.54C113.5 27.54 113.333 27.4533 113.2 27.28L108.48 20.5L109 20.34V29.4C109 29.6 108.947 29.7533 108.84 29.86C108.747 29.9533 108.6 30 108.4 30ZM130.191 30.12C129.124 30.12 128.164 29.88 127.311 29.4C126.471 28.9067 125.804 28.24 125.311 27.4C124.831 26.5467 124.591 25.5933 124.591 24.54C124.591 23.4733 124.831 22.52 125.311 21.68C125.804 20.8267 126.471 20.16 127.311 19.68C128.164 19.1867 129.124 18.94 130.191 18.94C131.257 18.94 132.211 19.1867 133.051 19.68C133.891 20.16 134.551 20.8267 135.031 21.68C135.524 22.52 135.771 23.4733 135.771 24.54L135.271 25.34C135.271 26.2467 135.044 27.06 134.591 27.78C134.151 28.5 133.551 29.0733 132.791 29.5C132.031 29.9133 131.164 30.12 130.191 30.12ZM130.191 29C131.031 29 131.777 28.8067 132.431 28.42C133.097 28.02 133.617 27.4867 133.991 26.82C134.377 26.14 134.571 25.38 134.571 24.54C134.571 23.6867 134.377 22.9267 133.991 22.26C133.617 21.58 133.097 21.0467 132.431 20.66C131.777 20.26 131.031 20.06 130.191 20.06C129.364 20.06 128.617 20.26 127.951 20.66C127.284 21.0467 126.757 21.58 126.371 22.26C125.984 22.9267 125.791 23.6867 125.791 24.54C125.791 25.38 125.984 26.14 126.371 26.82C126.757 27.4867 127.284 28.02 127.951 28.42C128.617 28.8067 129.364 29 130.191 29ZM135.171 30C134.997 30 134.851 29.9467 134.731 29.84C134.624 29.72 134.571 29.5733 134.571 29.4V25.74L134.951 24.54H135.771V29.4C135.771 29.5733 135.717 29.72 135.611 29.84C135.504 29.9467 135.357 30 135.171 30ZM144.065 30.12C143.345 30.12 142.678 30.0067 142.065 29.78C141.465 29.5533 140.978 29.2333 140.605 28.82C140.245 28.3933 140.065 27.88 140.065 27.28C140.065 26.8267 140.178 26.4067 140.405 26.02C140.645 25.62 141.052 25.2533 141.625 24.92C142.198 24.5867 143.005 24.3 144.045 24.06C144.925 23.8467 145.538 23.5667 145.885 23.22C146.245 22.86 146.425 22.42 146.425 21.9C146.425 21.3933 146.238 20.96 145.865 20.6C145.492 20.24 144.898 20.06 144.085 20.06C143.472 20.06 142.925 20.1733 142.445 20.4C141.965 20.6133 141.558 20.9333 141.225 21.36C141.132 21.4933 141.005 21.5733 140.845 21.6C140.698 21.6267 140.558 21.6067 140.425 21.54C140.252 21.4467 140.152 21.3267 140.125 21.18C140.098 21.02 140.132 20.8733 140.225 20.74C140.612 20.1933 141.118 19.76 141.745 19.44C142.372 19.1067 143.138 18.94 144.045 18.94C144.778 18.94 145.412 19.06 145.945 19.3C146.478 19.5267 146.892 19.8667 147.185 20.32C147.478 20.76 147.625 21.3067 147.625 21.96C147.625 22.6 147.392 23.2 146.925 23.76C146.458 24.3067 145.618 24.72 144.405 25C143.205 25.2667 142.378 25.58 141.925 25.94C141.485 26.2867 141.265 26.72 141.265 27.24C141.265 27.8267 141.485 28.2667 141.925 28.56C142.365 28.8533 143.058 29 144.005 29C144.672 29 145.278 28.9067 145.825 28.72C146.385 28.5333 146.852 28.2133 147.225 27.76C147.332 27.64 147.458 27.5667 147.605 27.54C147.752 27.5133 147.892 27.5467 148.025 27.64C148.172 27.7467 148.252 27.88 148.265 28.04C148.292 28.1867 148.252 28.3267 148.145 28.46C147.692 28.9933 147.078 29.4067 146.305 29.7C145.545 29.98 144.798 30.12 144.065 30.12ZM157.98 30.12C156.913 30.12 155.953 29.88 155.1 29.4C154.26 28.9067 153.593 28.24 153.1 27.4C152.62 26.5467 152.38 25.5933 152.38 24.54C152.38 23.4733 152.62 22.52 153.1 21.68C153.593 20.8267 154.26 20.16 155.1 19.68C155.953 19.1867 156.913 18.94 157.98 18.94C159.046 18.94 160 19.1867 160.84 19.68C161.68 20.16 162.34 20.8267 162.82 21.68C163.313 22.52 163.56 23.4733 163.56 24.54L163.06 25.34C163.06 26.2467 162.833 27.06 162.38 27.78C161.94 28.5 161.34 29.0733 160.58 29.5C159.82 29.9133 158.953 30.12 157.98 30.12ZM157.98 29C158.82 29 159.566 28.8067 160.22 28.42C160.886 28.02 161.406 27.4867 161.78 26.82C162.166 26.14 162.36 25.38 162.36 24.54C162.36 23.6867 162.166 22.9267 161.78 22.26C161.406 21.58 160.886 21.0467 160.22 20.66C159.566 20.26 158.82 20.06 157.98 20.06C157.153 20.06 156.406 20.26 155.74 20.66C155.073 21.0467 154.546 21.58 154.16 22.26C153.773 22.9267 153.58 23.6867 153.58 24.54C153.58 25.38 153.773 26.14 154.16 26.82C154.546 27.4867 155.073 28.02 155.74 28.42C156.406 28.8067 157.153 29 157.98 29ZM162.96 30C162.786 30 162.64 29.9467 162.52 29.84C162.413 29.72 162.36 29.5733 162.36 29.4V25.74L162.74 24.54H163.56V29.4C163.56 29.5733 163.506 29.72 163.4 29.84C163.293 29.9467 163.146 30 162.96 30ZM171.834 30.2C171.287 30.2 170.741 30.1133 170.194 29.94C169.647 29.7667 169.154 29.5333 168.714 29.24C168.287 28.9333 167.954 28.5933 167.714 28.22C167.634 28.0733 167.627 27.9267 167.694 27.78C167.761 27.6333 167.881 27.52 168.054 27.44C168.174 27.3867 168.307 27.3933 168.454 27.46C168.601 27.5133 168.721 27.6067 168.814 27.74C169.161 28.1133 169.594 28.4333 170.114 28.7C170.634 28.9533 171.201 29.08 171.814 29.08C172.641 29.08 173.327 28.9067 173.874 28.56C174.434 28.2 174.714 27.6733 174.714 26.98C174.714 26.38 174.487 25.8667 174.034 25.44C173.594 25.0133 173.034 24.7867 172.354 24.76H171.434C171.221 24.76 171.041 24.7067 170.894 24.6C170.761 24.4933 170.694 24.36 170.694 24.2C170.694 24.04 170.761 23.9067 170.894 23.8C171.041 23.6933 171.221 23.64 171.434 23.64H172.354C172.901 23.64 173.354 23.4667 173.714 23.12C174.087 22.76 174.274 22.32 174.274 21.8C174.274 21.2933 174.041 20.8667 173.574 20.52C173.121 20.1733 172.547 20 171.854 20C171.147 20 170.587 20.1267 170.174 20.38C169.761 20.62 169.421 20.9267 169.154 21.3C169.061 21.4333 168.934 21.52 168.774 21.56C168.627 21.6 168.481 21.5867 168.334 21.52C168.161 21.44 168.047 21.3267 167.994 21.18C167.954 21.02 167.981 20.8667 168.074 20.72C168.487 20.1867 169.001 19.7467 169.614 19.4C170.241 19.04 170.987 18.86 171.854 18.86C172.547 18.86 173.161 18.9867 173.694 19.24C174.241 19.48 174.674 19.8133 174.994 20.24C175.314 20.6667 175.474 21.1533 175.474 21.7C175.474 22.1267 175.361 22.5267 175.134 22.9C174.921 23.2733 174.621 23.5867 174.234 23.84C173.861 24.0933 173.427 24.26 172.934 24.34V24.08C173.507 24.08 174.014 24.2067 174.454 24.46C174.907 24.7133 175.261 25.06 175.514 25.5C175.781 25.94 175.914 26.44 175.914 27C175.914 27.6 175.734 28.1467 175.374 28.64C175.027 29.12 174.547 29.5 173.934 29.78C173.321 30.06 172.621 30.2 171.834 30.2ZM185.473 30.14C184.513 30.14 183.653 29.9467 182.893 29.56C182.133 29.16 181.526 28.58 181.073 27.82C180.633 27.06 180.413 26.1333 180.413 25.04V19.66C180.413 19.4867 180.466 19.3467 180.573 19.24C180.693 19.12 180.839 19.06 181.013 19.06C181.186 19.06 181.326 19.12 181.433 19.24C181.553 19.3467 181.613 19.4867 181.613 19.66V25.04C181.613 25.9067 181.779 26.6333 182.113 27.22C182.459 27.7933 182.919 28.2267 183.493 28.52C184.079 28.8 184.739 28.94 185.473 28.94C186.193 28.94 186.839 28.8 187.413 28.52C187.986 28.24 188.439 27.8667 188.773 27.4C189.106 26.92 189.273 26.38 189.273 25.78H190.273C190.219 26.6067 189.973 27.3533 189.533 28.02C189.093 28.6733 188.519 29.1933 187.813 29.58C187.119 29.9533 186.339 30.14 185.473 30.14ZM189.873 30C189.699 30 189.553 29.9467 189.433 29.84C189.326 29.72 189.273 29.5733 189.273 29.4V19.66C189.273 19.4733 189.326 19.3267 189.433 19.22C189.553 19.1133 189.699 19.06 189.873 19.06C190.059 19.06 190.206 19.1133 190.313 19.22C190.419 19.3267 190.473 19.4733 190.473 19.66V29.4C190.473 29.5733 190.419 29.72 190.313 29.84C190.206 29.9467 190.059 30 189.873 30ZM205.53 30C205.356 30 205.21 29.9467 205.09 29.84C204.983 29.72 204.93 29.5733 204.93 29.4V19.66C204.93 19.4733 204.983 19.3267 205.09 19.22C205.21 19.1133 205.356 19.06 205.53 19.06C205.716 19.06 205.863 19.1133 205.97 19.22C206.076 19.3267 206.13 19.4733 206.13 19.66V29.4C206.13 29.5733 206.076 29.72 205.97 29.84C205.863 29.9467 205.716 30 205.53 30ZM196.67 30C196.496 30 196.35 29.9467 196.23 29.84C196.123 29.72 196.07 29.5733 196.07 29.4V19.66C196.07 19.4733 196.123 19.3267 196.23 19.22C196.35 19.1133 196.496 19.06 196.67 19.06C196.856 19.06 197.003 19.1133 197.11 19.22C197.216 19.3267 197.27 19.4733 197.27 19.66V29.4C197.27 29.5733 197.216 29.72 197.11 29.84C197.003 29.9467 196.856 30 196.67 30ZM197.01 25.14V24.06H205.43V25.14H197.01ZM224.421 30.12C223.381 30.12 222.448 29.8733 221.621 29.38C220.808 28.8867 220.161 28.22 219.681 27.38C219.215 26.54 218.981 25.5933 218.981 24.54C218.981 23.4733 219.201 22.52 219.641 21.68C220.081 20.84 220.688 20.18 221.461 19.7C222.235 19.2067 223.121 18.96 224.121 18.96C224.975 18.96 225.755 19.1267 226.461 19.46C227.168 19.78 227.781 20.2733 228.301 20.94C228.408 21.0733 228.448 21.2133 228.421 21.36C228.395 21.5067 228.308 21.6267 228.161 21.72C228.041 21.8133 227.908 21.8533 227.761 21.84C227.615 21.8133 227.488 21.7333 227.381 21.6C226.528 20.5867 225.441 20.08 224.121 20.08C223.335 20.08 222.641 20.2733 222.041 20.66C221.455 21.0467 220.995 21.5733 220.661 22.24C220.341 22.9067 220.181 23.6733 220.181 24.54C220.181 25.38 220.361 26.14 220.721 26.82C221.081 27.4867 221.575 28.02 222.201 28.42C222.841 28.8067 223.581 29 224.421 29C224.968 29 225.481 28.92 225.961 28.76C226.455 28.6 226.881 28.3533 227.241 28.02C227.361 27.9133 227.495 27.8533 227.641 27.84C227.788 27.8267 227.915 27.8733 228.021 27.98C228.155 28.1 228.221 28.24 228.221 28.4C228.235 28.5467 228.181 28.6733 228.061 28.78C227.088 29.6733 225.875 30.12 224.421 30.12ZM233.457 34.78C233.123 34.7933 232.803 34.7467 232.497 34.64C232.19 34.5333 231.883 34.3933 231.577 34.22C231.403 34.1133 231.303 33.9733 231.277 33.8C231.237 33.6267 231.283 33.4667 231.417 33.32C231.537 33.1867 231.677 33.1267 231.837 33.14C232.01 33.1667 232.183 33.2267 232.357 33.32C232.53 33.4133 232.697 33.48 232.857 33.52C233.017 33.5733 233.203 33.5933 233.417 33.58C233.883 33.5533 234.317 33.3533 234.717 32.98C235.13 32.62 235.483 32.1 235.777 31.42L240.877 19.44C240.943 19.28 241.05 19.1733 241.197 19.12C241.357 19.0533 241.517 19.0533 241.677 19.12C241.837 19.1867 241.943 19.2933 241.997 19.44C242.063 19.5867 242.063 19.7467 241.997 19.92L236.857 31.86C236.483 32.7533 235.997 33.4533 235.397 33.96C234.81 34.48 234.163 34.7533 233.457 34.78ZM237.377 29.74C237.203 29.82 237.05 29.84 236.917 29.8C236.783 29.76 236.677 29.6533 236.597 29.48L232.217 19.88C232.137 19.7067 232.117 19.5533 232.157 19.42C232.197 19.2867 232.303 19.18 232.477 19.1C232.65 19.02 232.803 19 232.937 19.04C233.07 19.08 233.177 19.1867 233.257 19.36L237.637 28.96C237.717 29.1333 237.737 29.2867 237.697 29.42C237.657 29.5533 237.55 29.66 237.377 29.74ZM255.063 29.84C254.957 29.9467 254.823 30 254.663 30C254.503 30.0133 254.37 29.9533 254.263 29.82L249.563 24.56L254.123 19.24C254.23 19.1333 254.343 19.0733 254.463 19.06C254.597 19.0467 254.723 19.0933 254.843 19.2C254.977 19.3067 255.043 19.4333 255.043 19.58C255.043 19.7267 254.99 19.8667 254.883 20L251.043 24.5L255.083 29.04C255.19 29.16 255.243 29.2933 255.243 29.44C255.243 29.5867 255.183 29.72 255.063 29.84ZM247.423 30C247.25 30 247.103 29.9467 246.983 29.84C246.877 29.72 246.823 29.5733 246.823 29.4V19.66C246.823 19.4733 246.877 19.3267 246.983 19.22C247.103 19.1133 247.25 19.06 247.423 19.06C247.61 19.06 247.757 19.1133 247.863 19.22C247.97 19.3267 248.023 19.4733 248.023 19.66V24.06H250.383V25.14H248.023V29.4C248.023 29.5733 247.97 29.72 247.863 29.84C247.757 29.9467 247.61 30 247.423 30ZM267.981 29.84C267.875 29.9467 267.741 30 267.581 30C267.421 30.0133 267.288 29.9533 267.181 29.82L262.481 24.56L267.041 19.24C267.148 19.1333 267.261 19.0733 267.381 19.06C267.515 19.0467 267.641 19.0933 267.761 19.2C267.895 19.3067 267.961 19.4333 267.961 19.58C267.961 19.7267 267.908 19.8667 267.801 20L263.961 24.5L268.001 29.04C268.108 29.16 268.161 29.2933 268.161 29.44C268.161 29.5867 268.101 29.72 267.981 29.84ZM260.341 30C260.168 30 260.021 29.9467 259.901 29.84C259.795 29.72 259.741 29.5733 259.741 29.4V19.66C259.741 19.4733 259.795 19.3267 259.901 19.22C260.021 19.1133 260.168 19.06 260.341 19.06C260.528 19.06 260.675 19.1133 260.781 19.22C260.888 19.3267 260.941 19.4733 260.941 19.66V24.06H263.301V25.14H260.941V29.4C260.941 29.5733 260.888 29.72 260.781 29.84C260.675 29.9467 260.528 30 260.341 30ZM272.289 34.78C271.955 34.7933 271.635 34.7467 271.329 34.64C271.022 34.5333 270.715 34.3933 270.409 34.22C270.235 34.1133 270.135 33.9733 270.109 33.8C270.069 33.6267 270.115 33.4667 270.249 33.32C270.369 33.1867 270.509 33.1267 270.669 33.14C270.842 33.1667 271.015 33.2267 271.189 33.32C271.362 33.4133 271.529 33.48 271.689 33.52C271.849 33.5733 272.035 33.5933 272.249 33.58C272.715 33.5533 273.149 33.3533 273.549 32.98C273.962 32.62 274.315 32.1 274.609 31.42L279.709 19.44C279.775 19.28 279.882 19.1733 280.029 19.12C280.189 19.0533 280.349 19.0533 280.509 19.12C280.669 19.1867 280.775 19.2933 280.829 19.44C280.895 19.5867 280.895 19.7467 280.829 19.92L275.689 31.86C275.315 32.7533 274.829 33.4533 274.229 33.96C273.642 34.48 272.995 34.7533 272.289 34.78ZM276.209 29.74C276.035 29.82 275.882 29.84 275.749 29.8C275.615 29.76 275.509 29.6533 275.429 29.48L271.049 19.88C270.969 19.7067 270.949 19.5533 270.989 19.42C271.029 19.2867 271.135 19.18 271.309 19.1C271.482 19.02 271.635 19 271.769 19.04C271.902 19.08 272.009 19.1867 272.089 19.36L276.469 28.96C276.549 29.1333 276.569 29.2867 276.529 29.42C276.489 29.5533 276.382 29.66 276.209 29.74ZM289.715 19.04C289.849 19.04 289.975 19.0733 290.095 19.14C290.215 19.2067 290.302 19.3133 290.355 19.46L294.855 29.24C294.922 29.3733 294.922 29.5133 294.855 29.66C294.802 29.8067 294.702 29.9133 294.555 29.98C294.409 30.0467 294.255 30.0533 294.095 30C293.949 29.9467 293.842 29.8467 293.775 29.7L289.375 20H290.195L285.715 29.68C285.649 29.8267 285.529 29.9267 285.355 29.98C285.195 30.0333 285.042 30.0267 284.895 29.96C284.749 29.8933 284.649 29.7867 284.595 29.64C284.542 29.4933 284.542 29.3533 284.595 29.22L289.155 19.46C289.302 19.18 289.489 19.04 289.715 19.04ZM304.253 30.1C303.2 30.1 302.26 29.8667 301.433 29.4C300.62 28.92 299.98 28.26 299.513 27.42C299.047 26.58 298.813 25.62 298.813 24.54C298.813 23.4467 299.033 22.4867 299.473 21.66C299.913 20.82 300.52 20.16 301.293 19.68C302.067 19.2 302.953 18.96 303.953 18.96C304.94 18.96 305.813 19.1933 306.573 19.66C307.333 20.1133 307.927 20.7467 308.353 21.56C308.78 22.36 308.993 23.2867 308.993 24.34C308.993 24.5133 308.94 24.6533 308.833 24.76C308.727 24.8533 308.587 24.9 308.413 24.9H299.613V23.86H308.733L307.853 24.52C307.88 23.6533 307.733 22.8867 307.413 22.22C307.093 21.5533 306.633 21.0333 306.033 20.66C305.447 20.2733 304.753 20.08 303.953 20.08C303.193 20.08 302.513 20.2733 301.913 20.66C301.327 21.0333 300.86 21.5533 300.513 22.22C300.18 22.8867 300.013 23.66 300.013 24.54C300.013 25.4067 300.193 26.1733 300.553 26.84C300.913 27.5067 301.413 28.0333 302.053 28.42C302.693 28.7933 303.427 28.98 304.253 28.98C304.773 28.98 305.293 28.8933 305.813 28.72C306.347 28.5333 306.767 28.2933 307.073 28C307.18 27.8933 307.307 27.84 307.453 27.84C307.613 27.8267 307.747 27.8667 307.853 27.96C308 28.08 308.073 28.2133 308.073 28.36C308.087 28.5067 308.027 28.64 307.893 28.76C307.467 29.1467 306.907 29.4667 306.213 29.72C305.533 29.9733 304.88 30.1 304.253 30.1ZM323.061 30C322.887 30 322.741 29.9467 322.621 29.84C322.514 29.72 322.461 29.5733 322.461 29.4V19.66C322.461 19.4733 322.514 19.3267 322.621 19.22C322.741 19.1133 322.887 19.06 323.061 19.06C323.247 19.06 323.394 19.1133 323.501 19.22C323.607 19.3267 323.661 19.4733 323.661 19.66V29.4C323.661 29.5733 323.607 29.72 323.501 29.84C323.394 29.9467 323.247 30 323.061 30ZM314.201 30C314.027 30 313.881 29.9467 313.761 29.84C313.654 29.72 313.601 29.5733 313.601 29.4V19.66C313.601 19.4733 313.654 19.3267 313.761 19.22C313.881 19.1133 314.027 19.06 314.201 19.06C314.387 19.06 314.534 19.1133 314.641 19.22C314.747 19.3267 314.801 19.4733 314.801 19.66V29.4C314.801 29.5733 314.747 29.72 314.641 29.84C314.534 29.9467 314.387 30 314.201 30ZM314.541 25.14V24.06H322.961V25.14H314.541ZM344.313 30C344.14 30 343.993 29.9467 343.873 29.84C343.766 29.72 343.713 29.5733 343.713 29.4V23.62C343.713 22.5933 343.44 21.7533 342.893 21.1C342.36 20.4467 341.66 20.12 340.793 20.12C339.873 20.12 339.12 20.4267 338.533 21.04C337.96 21.64 337.686 22.4533 337.713 23.48H336.513C336.54 22.56 336.74 21.76 337.113 21.08C337.486 20.4 337.993 19.8733 338.633 19.5C339.273 19.1133 339.993 18.92 340.793 18.92C341.606 18.92 342.32 19.12 342.933 19.52C343.546 19.92 344.026 20.4733 344.373 21.18C344.733 21.8867 344.913 22.7 344.913 23.62V29.4C344.913 29.5733 344.86 29.72 344.753 29.84C344.646 29.9467 344.5 30 344.313 30ZM329.853 30C329.68 30 329.533 29.9467 329.413 29.84C329.306 29.72 329.253 29.5733 329.253 29.4V19.66C329.253 19.4733 329.306 19.3267 329.413 19.22C329.533 19.1133 329.68 19.06 329.853 19.06C330.04 19.06 330.186 19.1133 330.293 19.22C330.4 19.3267 330.453 19.4733 330.453 19.66V29.4C330.453 29.5733 330.4 29.72 330.293 29.84C330.186 29.9467 330.04 30 329.853 30ZM337.113 30C336.94 30 336.793 29.9467 336.673 29.84C336.566 29.72 336.513 29.5733 336.513 29.4V23.62C336.513 22.5933 336.24 21.7533 335.693 21.1C335.16 20.4467 334.46 20.12 333.593 20.12C332.673 20.12 331.92 20.4133 331.333 21C330.746 21.5867 330.453 22.3467 330.453 23.28H329.453C329.493 22.4267 329.693 21.6733 330.053 21.02C330.426 20.3667 330.92 19.8533 331.533 19.48C332.146 19.1067 332.833 18.92 333.593 18.92C334.406 18.92 335.12 19.12 335.733 19.52C336.346 19.92 336.826 20.4733 337.173 21.18C337.533 21.8867 337.713 22.7 337.713 23.62V29.4C337.713 29.5733 337.66 29.72 337.553 29.84C337.446 29.9467 337.3 30 337.113 30ZM355.316 30.12C354.249 30.12 353.289 29.88 352.436 29.4C351.596 28.9067 350.929 28.24 350.436 27.4C349.956 26.5467 349.716 25.5933 349.716 24.54C349.716 23.4733 349.956 22.52 350.436 21.68C350.929 20.8267 351.596 20.16 352.436 19.68C353.289 19.1867 354.249 18.94 355.316 18.94C356.382 18.94 357.336 19.1867 358.176 19.68C359.016 20.16 359.676 20.8267 360.156 21.68C360.649 22.52 360.896 23.4733 360.896 24.54C360.896 25.5933 360.649 26.5467 360.156 27.4C359.676 28.24 359.016 28.9067 358.176 29.4C357.336 29.88 356.382 30.12 355.316 30.12ZM355.316 29C356.156 29 356.902 28.8067 357.556 28.42C358.222 28.02 358.742 27.4867 359.116 26.82C359.502 26.14 359.696 25.3733 359.696 24.52C359.696 23.68 359.502 22.9267 359.116 22.26C358.742 21.58 358.222 21.0467 357.556 20.66C356.902 20.26 356.156 20.06 355.316 20.06C354.489 20.06 353.742 20.26 353.076 20.66C352.409 21.0467 351.882 21.58 351.496 22.26C351.109 22.9267 350.916 23.6867 350.916 24.54C350.916 25.38 351.109 26.14 351.496 26.82C351.882 27.4867 352.409 28.02 353.076 28.42C353.742 28.8067 354.489 29 355.316 29ZM366.49 30C366.317 30 366.17 29.9467 366.05 29.84C365.943 29.72 365.89 29.5733 365.89 29.4V19.64C365.903 19.4667 365.963 19.3267 366.07 19.22C366.177 19.1133 366.317 19.06 366.49 19.06C366.677 19.06 366.823 19.1133 366.93 19.22C367.037 19.3267 367.09 19.4733 367.09 19.66V23.72H371.53V23.92C372.21 23.92 372.803 24.0467 373.31 24.3C373.83 24.5533 374.237 24.9 374.53 25.34C374.823 25.78 374.97 26.2867 374.97 26.86C374.97 27.4733 374.823 28.02 374.53 28.5C374.237 28.9667 373.83 29.3333 373.31 29.6C372.803 29.8667 372.21 30 371.53 30H366.49ZM367.09 28.92H371.53C372.197 28.92 372.737 28.7533 373.15 28.42C373.563 28.0733 373.77 27.5533 373.77 26.86C373.77 26.1533 373.563 25.6333 373.15 25.3C372.737 24.9667 372.197 24.8 371.53 24.8H367.09V28.92ZM369.29 24.44V23.72H371.33C371.877 23.72 372.323 23.5533 372.67 23.22C373.03 22.8867 373.21 22.4533 373.21 21.92C373.21 21.4267 373.03 21.0067 372.67 20.66C372.323 20.3133 371.877 20.14 371.33 20.14H366.53V19.06H371.33C371.93 19.06 372.457 19.18 372.91 19.42C373.377 19.66 373.743 20 374.01 20.44C374.277 20.8667 374.41 21.36 374.41 21.92C374.41 22.8267 374.123 23.4733 373.55 23.86C372.977 24.2467 372.237 24.44 371.33 24.44H369.29Z" fill="#FFFBF8"/>
</svg>
