<svg width="123" height="33" viewBox="0 0 123 33" fill="none" xmlns="http://www.w3.org/2000/svg">
<path d="M1.44609 32C1.09943 32 0.806094 31.8933 0.566094 31.68C0.35276 31.44 0.246094 31.1467 0.246094 30.8V1.96C0.246094 1.58666 0.35276 1.29333 0.566094 1.08C0.806094 0.866665 1.09943 0.759999 1.44609 0.759999H9.08609C11.0328 0.759999 12.7528 1.17333 14.2461 2C15.7661 2.8 16.9528 3.90667 17.8061 5.32C18.6594 6.73333 19.0861 8.37333 19.0861 10.24C19.0861 12.0533 18.6594 13.6667 17.8061 15.08C16.9528 16.4933 15.7661 17.6 14.2461 18.4C12.7528 19.2 11.0328 19.6 9.08609 19.6H2.64609V30.8C2.64609 31.1467 2.53943 31.44 2.32609 31.68C2.11276 31.8933 1.81943 32 1.44609 32ZM18.2461 32C17.9528 32 17.7261 31.9467 17.5661 31.84C17.4328 31.7067 17.2994 31.5467 17.1661 31.36L9.20609 18.64L11.6861 18.08L19.2461 30.16C19.5928 30.6933 19.6594 31.1333 19.4461 31.48C19.2594 31.8267 18.8594 32 18.2461 32ZM2.64609 17.2H9.08609C10.5794 17.2 11.8861 16.9067 13.0061 16.32C14.1528 15.7067 15.0461 14.88 15.6861 13.84C16.3528 12.8 16.6861 11.6 16.6861 10.24C16.6861 8.85333 16.3528 7.62667 15.6861 6.56C15.0461 5.49333 14.1528 4.66666 13.0061 4.08C11.8861 3.46667 10.5794 3.16 9.08609 3.16H2.64609V17.2ZM36.182 32.24C34.0487 32.24 32.1287 31.76 30.422 30.8C28.742 29.8133 27.4087 28.48 26.422 26.8C25.462 25.0933 24.982 23.1867 24.982 21.08C24.982 18.9467 25.462 17.04 26.422 15.36C27.4087 13.6533 28.742 12.32 30.422 11.36C32.1287 10.3733 34.0487 9.88 36.182 9.88C38.3154 9.88 40.222 10.3733 41.902 11.36C43.582 12.32 44.902 13.6533 45.862 15.36C46.8487 17.04 47.342 18.9467 47.342 21.08C47.342 23.1867 46.8487 25.0933 45.862 26.8C44.902 28.48 43.582 29.8133 41.902 30.8C40.222 31.76 38.3154 32.24 36.182 32.24ZM36.182 30C37.862 30 39.3554 29.6133 40.662 28.84C41.9954 28.04 43.0354 26.9733 43.782 25.64C44.5554 24.28 44.942 22.7467 44.942 21.04C44.942 19.36 44.5554 17.8533 43.782 16.52C43.0354 15.16 41.9954 14.0933 40.662 13.32C39.3554 12.52 37.862 12.12 36.182 12.12C34.5287 12.12 33.0354 12.52 31.702 13.32C30.3687 14.0933 29.3154 15.16 28.542 16.52C27.7687 17.8533 27.382 19.3733 27.382 21.08C27.382 22.76 27.7687 24.28 28.542 25.64C29.3154 26.9733 30.3687 28.04 31.702 28.84C33.0354 29.6133 34.5287 30 36.182 30ZM65.3305 32.24C63.1971 32.24 61.2771 31.76 59.5705 30.8C57.8905 29.8133 56.5571 28.48 55.5705 26.8C54.6105 25.0933 54.1305 23.1867 54.1305 21.08C54.1305 18.9467 54.6105 17.04 55.5705 15.36C56.5571 13.6533 57.8905 12.32 59.5705 11.36C61.2771 10.3733 63.1971 9.88 65.3305 9.88C67.4638 9.88 69.3705 10.3733 71.0505 11.36C72.7305 12.32 74.0505 13.6533 75.0105 15.36C75.9971 17.04 76.4905 18.9467 76.4905 21.08C76.4905 23.1867 75.9971 25.0933 75.0105 26.8C74.0505 28.48 72.7305 29.8133 71.0505 30.8C69.3705 31.76 67.4638 32.24 65.3305 32.24ZM65.3305 30C67.0105 30 68.5038 29.6133 69.8105 28.84C71.1438 28.04 72.1838 26.9733 72.9305 25.64C73.7038 24.28 74.0905 22.7467 74.0905 21.04C74.0905 19.36 73.7038 17.8533 72.9305 16.52C72.1838 15.16 71.1438 14.0933 69.8105 13.32C68.5038 12.52 67.0105 12.12 65.3305 12.12C63.6771 12.12 62.1838 12.52 60.8505 13.32C59.5171 14.0933 58.4638 15.16 57.6905 16.52C56.9171 17.8533 56.5305 19.3733 56.5305 21.08C56.5305 22.76 56.9171 24.28 57.6905 25.64C58.4638 26.9733 59.5171 28.04 60.8505 28.84C62.1838 29.6133 63.6771 30 65.3305 30ZM93.4389 32C91.9722 31.9733 90.6656 31.64 89.5189 31C88.3722 30.3333 87.4789 29.4267 86.8389 28.28C86.1989 27.1067 85.8789 25.7867 85.8789 24.32V4.4C85.8789 4.02666 85.9856 3.73333 86.1989 3.52C86.4389 3.28 86.7322 3.16 87.0789 3.16C87.4522 3.16 87.7456 3.28 87.9589 3.52C88.1989 3.73333 88.3189 4.02666 88.3189 4.4V24.32C88.3189 25.8667 88.7989 27.1333 89.7589 28.12C90.7189 29.08 91.9589 29.56 93.4789 29.56H94.3589C94.7322 29.56 95.0256 29.68 95.2389 29.92C95.4789 30.1333 95.5989 30.4267 95.5989 30.8C95.5989 31.1467 95.4789 31.44 95.2389 31.68C95.0256 31.8933 94.7322 32 94.3589 32H93.4389ZM82.7589 13.08C82.4389 13.08 82.1722 12.9867 81.9589 12.8C81.7722 12.5867 81.6789 12.32 81.6789 12C81.6789 11.68 81.7722 11.4267 81.9589 11.24C82.1722 11.0267 82.4389 10.92 82.7589 10.92H93.5989C93.9189 10.92 94.1722 11.0267 94.3589 11.24C94.5722 11.4267 94.6789 11.68 94.6789 12C94.6789 12.32 94.5722 12.5867 94.3589 12.8C94.1722 12.9867 93.9189 13.08 93.5989 13.08H82.7589ZM112.372 32.4C110.692 32.4 109.145 32.1733 107.732 31.72C106.345 31.24 105.145 30.5733 104.132 29.72C103.118 28.84 102.318 27.8133 101.732 26.64C101.572 26.32 101.558 26.0133 101.692 25.72C101.852 25.4267 102.105 25.2267 102.452 25.12C102.745 25.0133 103.038 25.0267 103.332 25.16C103.625 25.2933 103.852 25.5067 104.012 25.8C104.492 26.6533 105.118 27.4 105.892 28.04C106.692 28.68 107.625 29.1733 108.692 29.52C109.785 29.84 111.012 30 112.372 30C113.892 30 115.198 29.7467 116.292 29.24C117.412 28.7333 118.265 27.9867 118.852 27C119.465 26.0133 119.772 24.8133 119.772 23.4C119.772 21.64 119.132 20.16 117.852 18.96C116.598 17.7333 114.678 16.9467 112.092 16.6C109.105 16.1733 106.772 15.2133 105.092 13.72C103.412 12.2 102.572 10.36 102.572 8.2C102.572 6.62667 102.958 5.25333 103.732 4.08C104.532 2.90667 105.638 2 107.052 1.36C108.492 0.693333 110.145 0.36 112.012 0.36C113.398 0.36 114.678 0.586666 115.852 1.04C117.025 1.49333 118.052 2.09333 118.932 2.84C119.812 3.56 120.492 4.32 120.972 5.12C121.158 5.41333 121.198 5.73333 121.092 6.08C121.012 6.4 120.798 6.62667 120.452 6.76C120.158 6.86667 119.865 6.88 119.572 6.8C119.278 6.69333 119.038 6.50667 118.852 6.24C118.478 5.68 117.998 5.13333 117.412 4.6C116.825 4.06666 116.092 3.62666 115.212 3.28C114.332 2.93333 113.265 2.76 112.012 2.76C109.825 2.76 108.105 3.25333 106.852 4.24C105.598 5.22667 104.972 6.62667 104.972 8.44C104.972 9.4 105.225 10.28 105.732 11.08C106.265 11.8533 107.092 12.52 108.212 13.08C109.332 13.64 110.758 14.0667 112.492 14.36C115.932 14.9467 118.398 16.0133 119.892 17.56C121.412 19.08 122.172 21.0267 122.172 23.4C122.172 24.7867 121.932 26.04 121.452 27.16C120.998 28.28 120.332 29.2267 119.452 30C118.598 30.7733 117.572 31.3733 116.372 31.8C115.172 32.2 113.838 32.4 112.372 32.4Z" fill="#F8F5FF"/>
</svg>
