<svg width="100" height="100" viewBox="0 0 100 100" fill="none" xmlns="http://www.w3.org/2000/svg">
<path d="M38.208 70.8334H54.1663V25C54.1663 23.895 53.7274 22.8352 52.946 22.0538C52.1645 21.2724 51.1047 20.8334 49.9997 20.8334H20.833" stroke="black" stroke-width="8.33333" stroke-linecap="round" stroke-linejoin="round"/>
<path d="M12.5 54.1666V66.6666C12.5 67.7717 12.939 68.8315 13.7204 69.6129C14.5018 70.3943 15.5616 70.8333 16.6667 70.8333H20.2917" stroke="black" stroke-width="8.33333" stroke-linecap="round" stroke-linejoin="round"/>
<path d="M61.9587 70.8333H54.167V29.1667H71.8753C72.8105 29.1321 73.7301 29.4133 74.486 29.9651C75.2419 30.5169 75.79 31.3071 76.042 32.2083L79.167 43.75L84.3337 45.0417C85.2581 45.2698 86.0766 45.8077 86.6528 46.5658C87.2289 47.3239 87.5281 48.2565 87.5003 49.2083V66.6667C87.5003 67.7717 87.0613 68.8315 86.2799 69.6129C85.4985 70.3943 84.4387 70.8333 83.3337 70.8333H79.6253" stroke="black" stroke-width="8.33333" stroke-linecap="round" stroke-linejoin="round"/>
<path d="M12.5 37.5H37.5M29.1667 62.5C27.5185 62.5 25.9073 62.9887 24.5369 63.9044C23.1665 64.8201 22.0984 66.1216 21.4677 67.6443C20.8369 69.167 20.6719 70.8426 20.9935 72.4591C21.315 74.0756 22.1087 75.5604 23.2741 76.7259C24.4395 77.8913 25.9244 78.685 27.5409 79.0065C29.1574 79.3281 30.833 79.1631 32.3557 78.5323C33.8784 77.9016 35.1799 76.8335 36.0956 75.4631C37.0113 74.0927 37.5 72.4815 37.5 70.8333C37.5 68.6232 36.622 66.5036 35.0592 64.9408C33.4964 63.378 31.3768 62.5 29.1667 62.5ZM70.8333 62.5C69.1852 62.5 67.574 62.9887 66.2036 63.9044C64.8332 64.8201 63.7651 66.1216 63.1343 67.6443C62.5036 69.167 62.3386 70.8426 62.6601 72.4591C62.9817 74.0756 63.7753 75.5604 64.9408 76.7259C66.1062 77.8913 67.5911 78.685 69.2076 79.0065C70.8241 79.3281 72.4996 79.1631 74.0224 78.5323C75.5451 77.9016 76.8466 76.8335 77.7622 75.4631C78.6779 74.0927 79.1667 72.4815 79.1667 70.8333C79.1667 68.6232 78.2887 66.5036 76.7259 64.9408C75.1631 63.378 73.0435 62.5 70.8333 62.5Z" stroke="#88A599" stroke-width="8.33333" stroke-linecap="round" stroke-linejoin="round"/>
</svg>
