<svg width="101" height="100" viewBox="0 0 101 100" fill="none" xmlns="http://www.w3.org/2000/svg">
<path d="M67.6667 87.5H33.3333C32.3097 87.5074 31.3191 87.1376 30.5506 86.4614C29.7821 85.7851 29.2895 84.8496 29.1667 83.8333L25.5 54.1666H75.5L71.7917 83.8333C71.6697 84.8424 71.183 85.7722 70.4233 86.4475C69.6636 87.1228 68.6832 87.4971 67.6667 87.5Z" fill="#88A599"/>
<path d="M29.167 54.1667C27.5243 52.5715 26.1209 50.747 25.0004 48.75C18.0004 36.7917 23.2504 20.8334 23.2504 20.8334C29.1898 22.2598 34.7759 24.8827 39.667 28.5417" stroke="black" stroke-width="8.33333" stroke-linecap="round" stroke-linejoin="round"/>
<path d="M71.833 54.1667C73.4758 52.5715 74.8792 50.747 75.9997 48.75C82.9163 36.7917 77.6663 20.8334 77.6663 20.8334C71.7561 22.2704 66.1994 24.8929 61.333 28.5417" stroke="black" stroke-width="8.33333" stroke-linecap="round" stroke-linejoin="round"/>
<path d="M57.4167 54.1667C60.8361 49.2608 62.7741 43.4757 63 37.5C63 23.7083 50.5 12.5 50.5 12.5C50.5 12.5 38 23.7083 38 37.5C38.2259 43.4757 40.1639 49.2608 43.5833 54.1667" stroke="black" stroke-width="8.33333" stroke-linecap="round" stroke-linejoin="round"/>
<path d="M21.333 54.1666H79.6663M67.6663 87.5H33.333C32.3093 87.5074 31.3188 87.1377 30.5503 86.4614C29.7818 85.7851 29.2892 84.8496 29.1663 83.8333L25.4997 54.1666H75.4997L71.7913 83.8333C71.6694 84.8424 71.1827 85.7722 70.423 86.4475C69.6632 87.1228 68.6828 87.4971 67.6663 87.5Z" stroke="black" stroke-width="8.33333" stroke-linecap="round" stroke-linejoin="round"/>
</svg>
